<?xml version="1.0" encoding="UTF-8" standalone="no"?>
<!-- Created with Inkscape (http://www.inkscape.org/) -->

<svg
   xmlns:dc="http://purl.org/dc/elements/1.1/"
   xmlns:cc="http://creativecommons.org/ns#"
   xmlns:rdf="http://www.w3.org/1999/02/22-rdf-syntax-ns#"
   xmlns:svg="http://www.w3.org/2000/svg"
   xmlns="http://www.w3.org/2000/svg"
   version="1.1"
   width="450"
   height="315"
   id="svg3004"
   xml:space="preserve"><metadata
     id="metadata3010"><rdf:RDF><cc:Work
         rdf:about=""><dc:format>image/svg+xml</dc:format><dc:type
           rdf:resource="http://purl.org/dc/dcmitype/StillImage" /><dc:title></dc:title></cc:Work></rdf:RDF></metadata><defs
     id="defs3008" /><g
     transform="matrix(1.25,0,0,-1.25,0,315)"
     id="g3012"><g
       id="g3014"><g
         transform="translate(0,252)"
         id="g3016"><path
           d="m 34.301,-229.602 3.148,0 m 309.903,0 -3.153,0"
           id="path3018"
           style="fill:none;stroke:#000000;stroke-width:0.5;stroke-linecap:butt;stroke-linejoin:miter;stroke-miterlimit:3.79999995;stroke-opacity:1;stroke-dasharray:none" /></g><text
         transform="matrix(1,0,0,-1,26.2085,20.1)"
         id="text3020"><tspan
           x="0"
           y="0"
           id="tspan3022"
           style="font-size:7px;font-variant:normal;font-weight:normal;writing-mode:lr-tb;fill:#000000;fill-opacity:1;fill-rule:nonzero;stroke:none;font-family:TeXGyreHeros;-inkscape-font-specification:TeXGyreHeros-Regular">0</tspan></text>
<g
         transform="translate(0,252)"
         id="g3024"><path
           d="m 34.301,-192.75 3.148,0 m 309.903,0 -3.153,0"
           id="path3026"
           style="fill:none;stroke:#000000;stroke-width:0.5;stroke-linecap:butt;stroke-linejoin:miter;stroke-miterlimit:3.79999995;stroke-opacity:1;stroke-dasharray:none" /></g><text
         transform="matrix(1,0,0,-1,22.3167,56.95)"
         id="text3028"><tspan
           x="0 3.892"
           y="0"
           id="tspan3030"
           style="font-size:7px;font-variant:normal;font-weight:normal;writing-mode:lr-tb;fill:#000000;fill-opacity:1;fill-rule:nonzero;stroke:none;font-family:TeXGyreHeros;-inkscape-font-specification:TeXGyreHeros-Regular">50</tspan></text>
<g
         transform="translate(0,252)"
         id="g3032"><path
           d="m 34.301,-155.898 3.148,0 m 309.903,0 -3.153,0"
           id="path3034"
           style="fill:none;stroke:#000000;stroke-width:0.5;stroke-linecap:butt;stroke-linejoin:miter;stroke-miterlimit:3.79999995;stroke-opacity:1;stroke-dasharray:none" /></g><text
         transform="matrix(1,0,0,-1,18.4249,93.8)"
         id="text3036"><tspan
           x="0 3.892 7.7839999"
           y="0"
           id="tspan3038"
           style="font-size:7px;font-variant:normal;font-weight:normal;writing-mode:lr-tb;fill:#000000;fill-opacity:1;fill-rule:nonzero;stroke:none;font-family:TeXGyreHeros;-inkscape-font-specification:TeXGyreHeros-Regular">100</tspan></text>
<g
         transform="translate(0,252)"
         id="g3040"><path
           d="m 34.301,-119 3.148,0 m 309.903,0 -3.153,0"
           id="path3042"
           style="fill:none;stroke:#000000;stroke-width:0.5;stroke-linecap:butt;stroke-linejoin:miter;stroke-miterlimit:3.79999995;stroke-opacity:1;stroke-dasharray:none" /></g><text
         transform="matrix(1,0,0,-1,18.4249,130.7)"
         id="text3044"><tspan
           x="0 3.892 7.7839999"
           y="0"
           id="tspan3046"
           style="font-size:7px;font-variant:normal;font-weight:normal;writing-mode:lr-tb;fill:#000000;fill-opacity:1;fill-rule:nonzero;stroke:none;font-family:TeXGyreHeros;-inkscape-font-specification:TeXGyreHeros-Regular">150</tspan></text>
<g
         transform="translate(0,252)"
         id="g3048"><path
           d="m 34.301,-82.148 3.148,0 m 309.903,0 -3.153,0"
           id="path3050"
           style="fill:none;stroke:#000000;stroke-width:0.5;stroke-linecap:butt;stroke-linejoin:miter;stroke-miterlimit:3.79999995;stroke-opacity:1;stroke-dasharray:none" /></g><text
         transform="matrix(1,0,0,-1,18.4249,167.55)"
         id="text3052"><tspan
           x="0 3.892 7.7839999"
           y="0"
           id="tspan3054"
           style="font-size:7px;font-variant:normal;font-weight:normal;writing-mode:lr-tb;fill:#000000;fill-opacity:1;fill-rule:nonzero;stroke:none;font-family:TeXGyreHeros;-inkscape-font-specification:TeXGyreHeros-Regular">200</tspan></text>
<g
         transform="translate(0,252)"
         id="g3056"><path
           d="m 34.301,-45.301 3.148,0 m 309.903,0 -3.153,0"
           id="path3058"
           style="fill:none;stroke:#000000;stroke-width:0.5;stroke-linecap:butt;stroke-linejoin:miter;stroke-miterlimit:3.79999995;stroke-opacity:1;stroke-dasharray:none" /></g><text
         transform="matrix(1,0,0,-1,18.4249,204.4)"
         id="text3060"><tspan
           x="0 3.892 7.7839999"
           y="0"
           id="tspan3062"
           style="font-size:7px;font-variant:normal;font-weight:normal;writing-mode:lr-tb;fill:#000000;fill-opacity:1;fill-rule:nonzero;stroke:none;font-family:TeXGyreHeros;-inkscape-font-specification:TeXGyreHeros-Regular">250</tspan></text>
<g
         transform="translate(0,252)"
         id="g3064"><path
           d="m 34.301,-8.449 3.148,0 m 309.903,0 -3.153,0"
           id="path3066"
           style="fill:none;stroke:#000000;stroke-width:0.5;stroke-linecap:butt;stroke-linejoin:miter;stroke-miterlimit:3.79999995;stroke-opacity:1;stroke-dasharray:none" /></g><text
         transform="matrix(1,0,0,-1,18.4249,241.25)"
         id="text3068"><tspan
           x="0 3.892 7.7839999"
           y="0"
           id="tspan3070"
           style="font-size:7px;font-variant:normal;font-weight:normal;writing-mode:lr-tb;fill:#000000;fill-opacity:1;fill-rule:nonzero;stroke:none;font-family:TeXGyreHeros;-inkscape-font-specification:TeXGyreHeros-Regular">300</tspan></text>
<g
         transform="translate(0,252)"
         id="g3072"><path
           d="m 34.301,-229.602 0,3.153 m 0,218 0,-3.153"
           id="path3074"
           style="fill:none;stroke:#000000;stroke-width:0.5;stroke-linecap:butt;stroke-linejoin:miter;stroke-miterlimit:3.79999995;stroke-opacity:1;stroke-dasharray:none" /></g><text
         transform="matrix(1,0,0,-1,33.3273,13.1)"
         id="text3076"><tspan
           x="0"
           y="0"
           id="tspan3078"
           style="font-size:7px;font-variant:normal;font-weight:normal;writing-mode:lr-tb;fill:#000000;fill-opacity:1;fill-rule:nonzero;stroke:none;font-family:TeXGyreHeros;-inkscape-font-specification:TeXGyreHeros-Regular">0</tspan></text>
<g
         transform="translate(0,252)"
         id="g3080"><path
           d="m 65.602,-229.602 0,3.153 m 0,218 0,-3.153"
           id="path3082"
           style="fill:none;stroke:#000000;stroke-width:0.5;stroke-linecap:butt;stroke-linejoin:miter;stroke-miterlimit:3.79999995;stroke-opacity:1;stroke-dasharray:none" /></g><text
         transform="matrix(1,0,0,-1,56.7456,13.1)"
         id="text3084"><tspan
           x="0 3.892 7.7839999 11.872 15.764"
           y="0"
           id="tspan3086"
           style="font-size:7px;font-variant:normal;font-weight:normal;writing-mode:lr-tb;fill:#000000;fill-opacity:1;fill-rule:nonzero;stroke:none;font-family:TeXGyreHeros;-inkscape-font-specification:TeXGyreHeros-Regular">5e+06</tspan></text>
<g
         transform="translate(0,252)"
         id="g3088"><path
           d="m 96.898,-229.602 0,3.153 m 0,218 0,-3.153"
           id="path3090"
           style="fill:none;stroke:#000000;stroke-width:0.5;stroke-linecap:butt;stroke-linejoin:miter;stroke-miterlimit:3.79999995;stroke-opacity:1;stroke-dasharray:none" /></g><text
         transform="matrix(1,0,0,-1,88.0456,13.1)"
         id="text3092"><tspan
           x="0 3.892 7.7839999 11.872 15.764"
           y="0"
           id="tspan3094"
           style="font-size:7px;font-variant:normal;font-weight:normal;writing-mode:lr-tb;fill:#000000;fill-opacity:1;fill-rule:nonzero;stroke:none;font-family:TeXGyreHeros;-inkscape-font-specification:TeXGyreHeros-Regular">1e+07</tspan></text>
<g
         transform="translate(0,252)"
         id="g3096"><path
           d="m 128.199,-229.602 0,3.153 m 0,218 0,-3.153"
           id="path3098"
           style="fill:none;stroke:#000000;stroke-width:0.5;stroke-linecap:butt;stroke-linejoin:miter;stroke-miterlimit:3.79999995;stroke-opacity:1;stroke-dasharray:none" /></g><text
         transform="matrix(1,0,0,-1,116.427,13.1)"
         id="text3100"><tspan
           x="0 3.892 5.8379998 9.7299995 13.622 17.709999 21.601999"
           y="0"
           id="tspan3102"
           style="font-size:7px;font-variant:normal;font-weight:normal;writing-mode:lr-tb;fill:#000000;fill-opacity:1;fill-rule:nonzero;stroke:none;font-family:TeXGyreHeros;-inkscape-font-specification:TeXGyreHeros-Regular">1.5e+07</tspan></text>
<g
         transform="translate(0,252)"
         id="g3104"><path
           d="m 159.5,-229.602 0,3.153 m 0,218 0,-3.153"
           id="path3106"
           style="fill:none;stroke:#000000;stroke-width:0.5;stroke-linecap:butt;stroke-linejoin:miter;stroke-miterlimit:3.79999995;stroke-opacity:1;stroke-dasharray:none" /></g><text
         transform="matrix(1,0,0,-1,150.646,13.1)"
         id="text3108"><tspan
           x="0 3.892 7.7839999 11.872 15.764"
           y="0"
           id="tspan3110"
           style="font-size:7px;font-variant:normal;font-weight:normal;writing-mode:lr-tb;fill:#000000;fill-opacity:1;fill-rule:nonzero;stroke:none;font-family:TeXGyreHeros;-inkscape-font-specification:TeXGyreHeros-Regular">2e+07</tspan></text>
<g
         transform="translate(0,252)"
         id="g3112"><path
           d="m 190.852,-229.602 0,3.153 m 0,218 0,-3.153"
           id="path3114"
           style="fill:none;stroke:#000000;stroke-width:0.5;stroke-linecap:butt;stroke-linejoin:miter;stroke-miterlimit:3.79999995;stroke-opacity:1;stroke-dasharray:none" /></g><text
         transform="matrix(1,0,0,-1,179.077,13.1)"
         id="text3116"><tspan
           x="0 3.892 5.8379998 9.7299995 13.622 17.709999 21.601999"
           y="0"
           id="tspan3118"
           style="font-size:7px;font-variant:normal;font-weight:normal;writing-mode:lr-tb;fill:#000000;fill-opacity:1;fill-rule:nonzero;stroke:none;font-family:TeXGyreHeros;-inkscape-font-specification:TeXGyreHeros-Regular">2.5e+07</tspan></text>
<g
         transform="translate(0,252)"
         id="g3120"><path
           d="m 222.148,-229.602 0,3.153 m 0,218 0,-3.153"
           id="path3122"
           style="fill:none;stroke:#000000;stroke-width:0.5;stroke-linecap:butt;stroke-linejoin:miter;stroke-miterlimit:3.79999995;stroke-opacity:1;stroke-dasharray:none" /></g><text
         transform="matrix(1,0,0,-1,213.296,13.1)"
         id="text3124"><tspan
           x="0 3.892 7.7839999 11.872 15.764"
           y="0"
           id="tspan3126"
           style="font-size:7px;font-variant:normal;font-weight:normal;writing-mode:lr-tb;fill:#000000;fill-opacity:1;fill-rule:nonzero;stroke:none;font-family:TeXGyreHeros;-inkscape-font-specification:TeXGyreHeros-Regular">3e+07</tspan></text>
<g
         transform="translate(0,252)"
         id="g3128"><path
           d="m 253.449,-229.602 0,3.153 m 0,218 0,-3.153"
           id="path3130"
           style="fill:none;stroke:#000000;stroke-width:0.5;stroke-linecap:butt;stroke-linejoin:miter;stroke-miterlimit:3.79999995;stroke-opacity:1;stroke-dasharray:none" /></g><text
         transform="matrix(1,0,0,-1,241.677,13.1)"
         id="text3132"><tspan
           x="0 3.892 5.8379998 9.7299995 13.622 17.709999 21.601999"
           y="0"
           id="tspan3134"
           style="font-size:7px;font-variant:normal;font-weight:normal;writing-mode:lr-tb;fill:#000000;fill-opacity:1;fill-rule:nonzero;stroke:none;font-family:TeXGyreHeros;-inkscape-font-specification:TeXGyreHeros-Regular">3.5e+07</tspan></text>
<g
         transform="translate(0,252)"
         id="g3136"><path
           d="m 284.75,-229.602 0,3.153 m 0,218 0,-3.153"
           id="path3138"
           style="fill:none;stroke:#000000;stroke-width:0.5;stroke-linecap:butt;stroke-linejoin:miter;stroke-miterlimit:3.79999995;stroke-opacity:1;stroke-dasharray:none" /></g><text
         transform="matrix(1,0,0,-1,275.896,13.1)"
         id="text3140"><tspan
           x="0 3.892 7.7839999 11.872 15.764"
           y="0"
           id="tspan3142"
           style="font-size:7px;font-variant:normal;font-weight:normal;writing-mode:lr-tb;fill:#000000;fill-opacity:1;fill-rule:nonzero;stroke:none;font-family:TeXGyreHeros;-inkscape-font-specification:TeXGyreHeros-Regular">4e+07</tspan></text>
<g
         transform="translate(0,252)"
         id="g3144"><path
           d="m 316.051,-229.602 0,3.153 m 0,218 0,-3.153"
           id="path3146"
           style="fill:none;stroke:#000000;stroke-width:0.5;stroke-linecap:butt;stroke-linejoin:miter;stroke-miterlimit:3.79999995;stroke-opacity:1;stroke-dasharray:none" /></g><text
         transform="matrix(1,0,0,-1,304.277,13.1)"
         id="text3148"><tspan
           x="0 3.892 5.8379998 9.7299995 13.622 17.709999 21.601999"
           y="0"
           id="tspan3150"
           style="font-size:7px;font-variant:normal;font-weight:normal;writing-mode:lr-tb;fill:#000000;fill-opacity:1;fill-rule:nonzero;stroke:none;font-family:TeXGyreHeros;-inkscape-font-specification:TeXGyreHeros-Regular">4.5e+07</tspan></text>
<g
         transform="translate(0,252)"
         id="g3152"><path
           d="m 347.352,-229.602 0,3.153 m 0,218 0,-3.153"
           id="path3154"
           style="fill:none;stroke:#000000;stroke-width:0.5;stroke-linecap:butt;stroke-linejoin:miter;stroke-miterlimit:3.79999995;stroke-opacity:1;stroke-dasharray:none" /></g><text
         transform="matrix(1,0,0,-1,338.496,13.1)"
         id="text3156"><tspan
           x="0 3.892 7.7839999 11.872 15.764"
           y="0"
           id="tspan3158"
           style="font-size:7px;font-variant:normal;font-weight:normal;writing-mode:lr-tb;fill:#000000;fill-opacity:1;fill-rule:nonzero;stroke:none;font-family:TeXGyreHeros;-inkscape-font-specification:TeXGyreHeros-Regular">5e+07</tspan></text>
<g
         transform="translate(0,252)"
         id="g3160"><path
           d="m 34.301,-8.449 313.051,0 0,-221.152 -313.051,0 0,221.152 z"
           id="path3162"
           style="fill:none;stroke:#000000;stroke-width:0.5;stroke-linecap:butt;stroke-linejoin:miter;stroke-miterlimit:3.79999995;stroke-opacity:1;stroke-dasharray:none" /></g><text
         transform="matrix(0,1,1,0,7.9,117.204)"
         id="text3164"><tspan
           x="0 4.277 5.8309999 11.662 15.554 17.5 19.830999 25.662001 29.162001"
           y="0"
           id="tspan3166"
           style="font-size:7px;font-variant:normal;font-weight:normal;writing-mode:lr-tb;fill:#000000;fill-opacity:1;fill-rule:nonzero;stroke:none;font-family:TeXGyreHeros;-inkscape-font-specification:TeXGyreHeros-Regular">Time (ms)</tspan></text>
<text
         transform="matrix(1,0,0,-1,159.089,2.6)"
         id="text3168"><tspan
           x="0 3.892 5.8379998 9.7299995 11.676 13.622 15.176 19.068001 21.014 24.906 28.798 32.689999 35.021 38.521 40.466999 44.359001 48.250999 51.750999 55.643002 59.535"
           y="0"
           id="tspan3170"
           style="font-size:7px;font-variant:normal;font-weight:normal;writing-mode:lr-tb;fill:#000000;fill-opacity:1;fill-rule:nonzero;stroke:none;font-family:TeXGyreHeros;-inkscape-font-specification:TeXGyreHeros-Regular"># of integers pushed</tspan><tspan
           x="107.084 109.415 113.307 117.199 118.753 120.307 124.199 127.699 131.591 135.483 138.983 144.037 147.929 151.821"
           y="-232"
           id="tspan3172"
           style="font-size:7px;font-variant:normal;font-weight:normal;writing-mode:lr-tb;fill:#000000;fill-opacity:1;fill-rule:nonzero;stroke:none;font-family:TeXGyreHeros;-inkscape-font-specification:TeXGyreHeros-Regular">realloc_nsw_15</tspan></text>
<g
         transform="translate(0,252)"
         id="g3174"><path
           d="m 319,-15.102 19.949,0 m -298.398,-213.046 31.301,7.398 31.296,7.602 31.352,7.5 31.301,10.097 31.301,4.75 31.296,6.801 31.301,7.102 31.301,16.25 31.301,-2"
           id="path3176"
           style="fill:none;stroke:#0061ad;stroke-width:0.5;stroke-linecap:butt;stroke-linejoin:miter;stroke-miterlimit:3.79999995;stroke-opacity:1;stroke-dasharray:none" /></g><path
         d="m 42.125,23.852 c 0,0.867 -0.707,1.574 -1.574,1.574 -0.871,0 -1.574,-0.707 -1.574,-1.574 0,-0.872 0.703,-1.579 1.574,-1.579 0.867,0 1.574,0.707 1.574,1.579"
         id="path3178"
         style="fill:#0061ad;fill-opacity:1;fill-rule:nonzero;stroke:none" /><path
         d="m 73.426,31.25 c 0,0.871 -0.707,1.574 -1.574,1.574 -0.872,0 -1.579,-0.703 -1.579,-1.574 0,-0.871 0.707,-1.574 1.579,-1.574 0.867,0 1.574,0.703 1.574,1.574"
         id="path3180"
         style="fill:#0061ad;fill-opacity:1;fill-rule:nonzero;stroke:none" /><path
         d="m 104.727,38.852 c 0,0.867 -0.707,1.574 -1.579,1.574 -0.867,0 -1.574,-0.707 -1.574,-1.574 0,-0.872 0.707,-1.579 1.574,-1.579 0.872,0 1.579,0.707 1.579,1.579"
         id="path3182"
         style="fill:#0061ad;fill-opacity:1;fill-rule:nonzero;stroke:none" /><path
         d="m 136.074,46.352 c 0,0.867 -0.703,1.574 -1.574,1.574 -0.871,0 -1.574,-0.707 -1.574,-1.574 0,-0.872 0.703,-1.579 1.574,-1.579 0.871,0 1.574,0.707 1.574,1.579"
         id="path3184"
         style="fill:#0061ad;fill-opacity:1;fill-rule:nonzero;stroke:none" /><path
         d="m 167.375,56.449 c 0,0.871 -0.703,1.574 -1.574,1.574 -0.871,0 -1.574,-0.703 -1.574,-1.574 0,-0.867 0.703,-1.574 1.574,-1.574 0.871,0 1.574,0.707 1.574,1.574"
         id="path3186"
         style="fill:#0061ad;fill-opacity:1;fill-rule:nonzero;stroke:none" /><path
         d="m 198.676,61.199 c 0,0.871 -0.707,1.574 -1.574,1.574 -0.872,0 -1.579,-0.703 -1.579,-1.574 0,-0.867 0.707,-1.574 1.579,-1.574 0.867,0 1.574,0.707 1.574,1.574"
         id="path3188"
         style="fill:#0061ad;fill-opacity:1;fill-rule:nonzero;stroke:none" /><path
         d="m 229.977,68 c 0,0.871 -0.707,1.574 -1.579,1.574 -0.867,0 -1.574,-0.703 -1.574,-1.574 0,-0.871 0.707,-1.574 1.574,-1.574 0.872,0 1.579,0.703 1.579,1.574"
         id="path3190"
         style="fill:#0061ad;fill-opacity:1;fill-rule:nonzero;stroke:none" /><path
         d="m 261.273,75.102 c 0,0.867 -0.703,1.574 -1.574,1.574 -0.871,0 -1.574,-0.707 -1.574,-1.574 0,-0.872 0.703,-1.579 1.574,-1.579 0.871,0 1.574,0.707 1.574,1.579"
         id="path3192"
         style="fill:#0061ad;fill-opacity:1;fill-rule:nonzero;stroke:none" /><path
         d="m 292.574,91.352 c 0,0.867 -0.703,1.574 -1.574,1.574 -0.871,0 -1.574,-0.707 -1.574,-1.574 0,-0.872 0.703,-1.579 1.574,-1.579 0.871,0 1.574,0.707 1.574,1.579"
         id="path3194"
         style="fill:#0061ad;fill-opacity:1;fill-rule:nonzero;stroke:none" /><path
         d="m 323.875,89.352 c 0,0.867 -0.703,1.574 -1.574,1.574 -0.871,0 -1.574,-0.707 -1.574,-1.574 0,-0.872 0.703,-1.579 1.574,-1.579 0.871,0 1.574,0.707 1.574,1.579"
         id="path3196"
         style="fill:#0061ad;fill-opacity:1;fill-rule:nonzero;stroke:none" /><path
         d="m 330.523,236.898 c 0,0.872 -0.703,1.579 -1.574,1.579 -0.871,0 -1.574,-0.707 -1.574,-1.579 0,-0.867 0.703,-1.574 1.574,-1.574 0.871,0 1.574,0.707 1.574,1.574"
         id="path3198"
         style="fill:#0061ad;fill-opacity:1;fill-rule:nonzero;stroke:none" /><text
         transform="matrix(1,0,0,-1,270.065,227.6)"
         id="text3200"><tspan
           x="0 2.3310001 6.223 10.115 11.669 13.223 17.115 20.615 24.507 28.399 31.899 36.952999 40.845001"
           y="0"
           id="tspan3202"
           style="font-size:7px;font-variant:normal;font-weight:normal;writing-mode:lr-tb;fill:#000000;fill-opacity:1;fill-rule:nonzero;stroke:none;font-family:TeXGyreHeros;-inkscape-font-specification:TeXGyreHeros-Regular">realloc_nsw_2</tspan></text>
<g
         transform="translate(0,252)"
         id="g3204"><path
           d="m 319,-22.102 19.949,0 m -298.398,-206.25 31.301,7.25 31.296,7.704 31.352,7.75 31.301,7.25 31.301,7.5 31.296,7.347 31.301,7.25 31.301,7.903 31.301,7.347"
           id="path3206"
           style="fill:none;stroke:#de171f;stroke-width:0.5;stroke-linecap:butt;stroke-linejoin:miter;stroke-miterlimit:3.79999995;stroke-opacity:1;stroke-dasharray:none" /></g><path
         d="m 42.125,23.648 c 0,0.872 -0.707,1.579 -1.574,1.579 -0.871,0 -1.574,-0.707 -1.574,-1.579 0,-0.867 0.703,-1.574 1.574,-1.574 0.867,0 1.574,0.707 1.574,1.574"
         id="path3208"
         style="fill:#de171f;fill-opacity:1;fill-rule:nonzero;stroke:none" /><path
         d="m 73.426,30.898 c 0,0.872 -0.707,1.579 -1.574,1.579 -0.872,0 -1.579,-0.707 -1.579,-1.579 0,-0.867 0.707,-1.574 1.579,-1.574 0.867,0 1.574,0.707 1.574,1.574"
         id="path3210"
         style="fill:#de171f;fill-opacity:1;fill-rule:nonzero;stroke:none" /><path
         d="m 104.727,38.602 c 0,0.867 -0.707,1.574 -1.579,1.574 -0.867,0 -1.574,-0.707 -1.574,-1.574 0,-0.872 0.707,-1.579 1.574,-1.579 0.872,0 1.579,0.707 1.579,1.579"
         id="path3212"
         style="fill:#de171f;fill-opacity:1;fill-rule:nonzero;stroke:none" /><path
         d="m 136.074,46.352 c 0,0.867 -0.703,1.574 -1.574,1.574 -0.871,0 -1.574,-0.707 -1.574,-1.574 0,-0.872 0.703,-1.579 1.574,-1.579 0.871,0 1.574,0.707 1.574,1.579"
         id="path3214"
         style="fill:#de171f;fill-opacity:1;fill-rule:nonzero;stroke:none" /><path
         d="m 167.375,53.602 c 0,0.867 -0.703,1.574 -1.574,1.574 -0.871,0 -1.574,-0.707 -1.574,-1.574 0,-0.872 0.703,-1.579 1.574,-1.579 0.871,0 1.574,0.707 1.574,1.579"
         id="path3216"
         style="fill:#de171f;fill-opacity:1;fill-rule:nonzero;stroke:none" /><path
         d="m 198.676,61.102 c 0,0.867 -0.707,1.574 -1.574,1.574 -0.872,0 -1.579,-0.707 -1.579,-1.574 0,-0.872 0.707,-1.579 1.579,-1.579 0.867,0 1.574,0.707 1.574,1.579"
         id="path3218"
         style="fill:#de171f;fill-opacity:1;fill-rule:nonzero;stroke:none" /><path
         d="m 229.977,68.449 c 0,0.871 -0.707,1.574 -1.579,1.574 -0.867,0 -1.574,-0.703 -1.574,-1.574 0,-0.867 0.707,-1.574 1.574,-1.574 0.872,0 1.579,0.707 1.579,1.574"
         id="path3220"
         style="fill:#de171f;fill-opacity:1;fill-rule:nonzero;stroke:none" /><path
         d="m 261.273,75.699 c 0,0.871 -0.703,1.574 -1.574,1.574 -0.871,0 -1.574,-0.703 -1.574,-1.574 0,-0.867 0.703,-1.574 1.574,-1.574 0.871,0 1.574,0.707 1.574,1.574"
         id="path3222"
         style="fill:#de171f;fill-opacity:1;fill-rule:nonzero;stroke:none" /><path
         d="m 292.574,83.602 c 0,0.867 -0.703,1.574 -1.574,1.574 -0.871,0 -1.574,-0.707 -1.574,-1.574 0,-0.872 0.703,-1.579 1.574,-1.579 0.871,0 1.574,0.707 1.574,1.579"
         id="path3224"
         style="fill:#de171f;fill-opacity:1;fill-rule:nonzero;stroke:none" /><path
         d="m 323.875,90.949 c 0,0.871 -0.703,1.574 -1.574,1.574 -0.871,0 -1.574,-0.703 -1.574,-1.574 0,-0.867 0.703,-1.574 1.574,-1.574 0.871,0 1.574,0.707 1.574,1.574"
         id="path3226"
         style="fill:#de171f;fill-opacity:1;fill-rule:nonzero;stroke:none" /><path
         d="m 330.523,229.898 c 0,0.872 -0.703,1.579 -1.574,1.579 -0.871,0 -1.574,-0.707 -1.574,-1.579 0,-0.867 0.703,-1.574 1.574,-1.574 0.871,0 1.574,0.707 1.574,1.574"
         id="path3228"
         style="fill:#de171f;fill-opacity:1;fill-rule:nonzero;stroke:none" /><text
         transform="matrix(1,0,0,-1,282.511,220.6)"
         id="text3230"><tspan
           x="0 3.5 5.4460001 9.3380003 11.284 13.23 16.73 20.622 24.122 26.068001 29.959999"
           y="0"
           id="tspan3232"
           style="font-size:7px;font-variant:normal;font-weight:normal;writing-mode:lr-tb;fill:#000000;fill-opacity:1;fill-rule:nonzero;stroke:none;font-family:TeXGyreHeros;-inkscape-font-specification:TeXGyreHeros-Regular">std::vector</tspan></text>
<g
         transform="translate(0,252)"
         id="g3234"><path
           d="m 319,-29.102 19.949,0 m -298.398,-197.449 31.301,19.801 31.296,24.199 31.352,9.852 31.301,32.148 31.301,10.699 31.296,8.5 31.301,52.102 L 291,-56 l 31.301,13.051"
           id="path3236"
           style="fill:none;stroke:#a1ff00;stroke-width:0.5;stroke-linecap:butt;stroke-linejoin:miter;stroke-miterlimit:3.79999995;stroke-opacity:1;stroke-dasharray:2, 1;stroke-dashoffset:0" /></g><path
         d="m 42.125,25.449 c 0,0.871 -0.707,1.574 -1.574,1.574 -0.871,0 -1.574,-0.703 -1.574,-1.574 0,-0.867 0.703,-1.574 1.574,-1.574 0.867,0 1.574,0.707 1.574,1.574"
         id="path3238"
         style="fill:#a1ff00;fill-opacity:1;fill-rule:nonzero;stroke:none" /><path
         d="m 73.426,45.25 c 0,0.871 -0.707,1.574 -1.574,1.574 -0.872,0 -1.579,-0.703 -1.579,-1.574 0,-0.871 0.707,-1.574 1.579,-1.574 0.867,0 1.574,0.703 1.574,1.574"
         id="path3240"
         style="fill:#a1ff00;fill-opacity:1;fill-rule:nonzero;stroke:none" /><path
         d="m 104.727,69.449 c 0,0.871 -0.707,1.574 -1.579,1.574 -0.867,0 -1.574,-0.703 -1.574,-1.574 0,-0.867 0.707,-1.574 1.574,-1.574 0.872,0 1.579,0.707 1.579,1.574"
         id="path3242"
         style="fill:#a1ff00;fill-opacity:1;fill-rule:nonzero;stroke:none" /><path
         d="m 136.074,79.301 c 0,0.867 -0.703,1.574 -1.574,1.574 -0.871,0 -1.574,-0.707 -1.574,-1.574 0,-0.871 0.703,-1.574 1.574,-1.574 0.871,0 1.574,0.703 1.574,1.574"
         id="path3244"
         style="fill:#a1ff00;fill-opacity:1;fill-rule:nonzero;stroke:none" /><path
         d="m 167.375,111.449 c 0,0.871 -0.703,1.574 -1.574,1.574 -0.871,0 -1.574,-0.703 -1.574,-1.574 0,-0.871 0.703,-1.574 1.574,-1.574 0.871,0 1.574,0.703 1.574,1.574"
         id="path3246"
         style="fill:#a1ff00;fill-opacity:1;fill-rule:nonzero;stroke:none" /><path
         d="m 198.676,122.148 c 0,0.872 -0.707,1.579 -1.574,1.579 -0.872,0 -1.579,-0.707 -1.579,-1.579 0,-0.867 0.707,-1.574 1.579,-1.574 0.867,0 1.574,0.707 1.574,1.574"
         id="path3248"
         style="fill:#a1ff00;fill-opacity:1;fill-rule:nonzero;stroke:none" /><path
         d="m 229.977,130.648 c 0,0.872 -0.707,1.579 -1.579,1.579 -0.867,0 -1.574,-0.707 -1.574,-1.579 0,-0.867 0.707,-1.574 1.574,-1.574 0.872,0 1.579,0.707 1.579,1.574"
         id="path3250"
         style="fill:#a1ff00;fill-opacity:1;fill-rule:nonzero;stroke:none" /><path
         d="m 261.273,182.75 c 0,0.871 -0.703,1.574 -1.574,1.574 -0.871,0 -1.574,-0.703 -1.574,-1.574 0,-0.871 0.703,-1.574 1.574,-1.574 0.871,0 1.574,0.703 1.574,1.574"
         id="path3252"
         style="fill:#a1ff00;fill-opacity:1;fill-rule:nonzero;stroke:none" /><path
         d="m 292.574,196 c 0,0.871 -0.703,1.574 -1.574,1.574 -0.871,0 -1.574,-0.703 -1.574,-1.574 0,-0.871 0.703,-1.574 1.574,-1.574 0.871,0 1.574,0.703 1.574,1.574"
         id="path3254"
         style="fill:#a1ff00;fill-opacity:1;fill-rule:nonzero;stroke:none" /><path
         d="m 323.875,209.051 c 0,0.871 -0.703,1.574 -1.574,1.574 -0.871,0 -1.574,-0.703 -1.574,-1.574 0,-0.871 0.703,-1.574 1.574,-1.574 0.871,0 1.574,0.703 1.574,1.574"
         id="path3256"
         style="fill:#a1ff00;fill-opacity:1;fill-rule:nonzero;stroke:none" /><path
         d="m 330.523,222.898 c 0,0.872 -0.703,1.579 -1.574,1.579 -0.871,0 -1.574,-0.707 -1.574,-1.579 0,-0.867 0.703,-1.574 1.574,-1.574 0.871,0 1.574,0.707 1.574,1.574"
         id="path3258"
         style="fill:#a1ff00;fill-opacity:1;fill-rule:nonzero;stroke:none" /><g
         transform="translate(0,252)"
         id="g3260"><path
           d="m 34.301,-8.449 313.051,0 0,-221.152 -313.051,0 0,221.152 z"
           id="path3262"
           style="fill:none;stroke:#000000;stroke-width:0.5;stroke-linecap:butt;stroke-linejoin:miter;stroke-miterlimit:3.79999995;stroke-opacity:1;stroke-dasharray:none" /></g></g></g></svg>