<?xml version="1.0" encoding="UTF-8" standalone="no"?>
<!-- Created with Inkscape (http://www.inkscape.org/) -->

<svg
   xmlns:dc="http://purl.org/dc/elements/1.1/"
   xmlns:cc="http://creativecommons.org/ns#"
   xmlns:rdf="http://www.w3.org/1999/02/22-rdf-syntax-ns#"
   xmlns:svg="http://www.w3.org/2000/svg"
   xmlns="http://www.w3.org/2000/svg"
   version="1.1"
   width="450"
   height="315"
   id="svg2"
   xml:space="preserve"><metadata
     id="metadata8"><rdf:RDF><cc:Work
         rdf:about=""><dc:format>image/svg+xml</dc:format><dc:type
           rdf:resource="http://purl.org/dc/dcmitype/StillImage" /><dc:title></dc:title></cc:Work></rdf:RDF></metadata><defs
     id="defs6" /><g
     transform="matrix(1.25,0,0,-1.25,0,315)"
     id="g10"><g
       id="g12"><g
         transform="translate(0,252)"
         id="g14"><path
           d="m 34.301,-229.602 3.148,0 m 309.903,0 -3.153,0"
           id="path16"
           style="fill:none;stroke:#000000;stroke-width:0.5;stroke-linecap:butt;stroke-linejoin:miter;stroke-miterlimit:3.79999995;stroke-opacity:1;stroke-dasharray:none" /></g><text
         transform="matrix(1,0,0,-1,26.2085,20.1)"
         id="text18"><tspan
           x="0"
           y="0"
           id="tspan20"
           style="font-size:7px;font-variant:normal;font-weight:normal;writing-mode:lr-tb;fill:#000000;fill-opacity:1;fill-rule:nonzero;stroke:none;font-family:TeXGyreHeros;-inkscape-font-specification:TeXGyreHeros-Regular">0</tspan></text>
<g
         transform="translate(0,252)"
         id="g22"><path
           d="m 34.301,-192.75 3.148,0 m 309.903,0 -3.153,0"
           id="path24"
           style="fill:none;stroke:#000000;stroke-width:0.5;stroke-linecap:butt;stroke-linejoin:miter;stroke-miterlimit:3.79999995;stroke-opacity:1;stroke-dasharray:none" /></g><text
         transform="matrix(1,0,0,-1,22.3167,56.95)"
         id="text26"><tspan
           x="0 3.892"
           y="0"
           id="tspan28"
           style="font-size:7px;font-variant:normal;font-weight:normal;writing-mode:lr-tb;fill:#000000;fill-opacity:1;fill-rule:nonzero;stroke:none;font-family:TeXGyreHeros;-inkscape-font-specification:TeXGyreHeros-Regular">50</tspan></text>
<g
         transform="translate(0,252)"
         id="g30"><path
           d="m 34.301,-155.898 3.148,0 m 309.903,0 -3.153,0"
           id="path32"
           style="fill:none;stroke:#000000;stroke-width:0.5;stroke-linecap:butt;stroke-linejoin:miter;stroke-miterlimit:3.79999995;stroke-opacity:1;stroke-dasharray:none" /></g><text
         transform="matrix(1,0,0,-1,18.4249,93.8)"
         id="text34"><tspan
           x="0 3.892 7.7839999"
           y="0"
           id="tspan36"
           style="font-size:7px;font-variant:normal;font-weight:normal;writing-mode:lr-tb;fill:#000000;fill-opacity:1;fill-rule:nonzero;stroke:none;font-family:TeXGyreHeros;-inkscape-font-specification:TeXGyreHeros-Regular">100</tspan></text>
<g
         transform="translate(0,252)"
         id="g38"><path
           d="m 34.301,-119 3.148,0 m 309.903,0 -3.153,0"
           id="path40"
           style="fill:none;stroke:#000000;stroke-width:0.5;stroke-linecap:butt;stroke-linejoin:miter;stroke-miterlimit:3.79999995;stroke-opacity:1;stroke-dasharray:none" /></g><text
         transform="matrix(1,0,0,-1,18.4249,130.7)"
         id="text42"><tspan
           x="0 3.892 7.7839999"
           y="0"
           id="tspan44"
           style="font-size:7px;font-variant:normal;font-weight:normal;writing-mode:lr-tb;fill:#000000;fill-opacity:1;fill-rule:nonzero;stroke:none;font-family:TeXGyreHeros;-inkscape-font-specification:TeXGyreHeros-Regular">150</tspan></text>
<g
         transform="translate(0,252)"
         id="g46"><path
           d="m 34.301,-82.148 3.148,0 m 309.903,0 -3.153,0"
           id="path48"
           style="fill:none;stroke:#000000;stroke-width:0.5;stroke-linecap:butt;stroke-linejoin:miter;stroke-miterlimit:3.79999995;stroke-opacity:1;stroke-dasharray:none" /></g><text
         transform="matrix(1,0,0,-1,18.4249,167.55)"
         id="text50"><tspan
           x="0 3.892 7.7839999"
           y="0"
           id="tspan52"
           style="font-size:7px;font-variant:normal;font-weight:normal;writing-mode:lr-tb;fill:#000000;fill-opacity:1;fill-rule:nonzero;stroke:none;font-family:TeXGyreHeros;-inkscape-font-specification:TeXGyreHeros-Regular">200</tspan></text>
<g
         transform="translate(0,252)"
         id="g54"><path
           d="m 34.301,-45.301 3.148,0 m 309.903,0 -3.153,0"
           id="path56"
           style="fill:none;stroke:#000000;stroke-width:0.5;stroke-linecap:butt;stroke-linejoin:miter;stroke-miterlimit:3.79999995;stroke-opacity:1;stroke-dasharray:none" /></g><text
         transform="matrix(1,0,0,-1,18.4249,204.4)"
         id="text58"><tspan
           x="0 3.892 7.7839999"
           y="0"
           id="tspan60"
           style="font-size:7px;font-variant:normal;font-weight:normal;writing-mode:lr-tb;fill:#000000;fill-opacity:1;fill-rule:nonzero;stroke:none;font-family:TeXGyreHeros;-inkscape-font-specification:TeXGyreHeros-Regular">250</tspan></text>
<g
         transform="translate(0,252)"
         id="g62"><path
           d="m 34.301,-8.449 3.148,0 m 309.903,0 -3.153,0"
           id="path64"
           style="fill:none;stroke:#000000;stroke-width:0.5;stroke-linecap:butt;stroke-linejoin:miter;stroke-miterlimit:3.79999995;stroke-opacity:1;stroke-dasharray:none" /></g><text
         transform="matrix(1,0,0,-1,18.4249,241.25)"
         id="text66"><tspan
           x="0 3.892 7.7839999"
           y="0"
           id="tspan68"
           style="font-size:7px;font-variant:normal;font-weight:normal;writing-mode:lr-tb;fill:#000000;fill-opacity:1;fill-rule:nonzero;stroke:none;font-family:TeXGyreHeros;-inkscape-font-specification:TeXGyreHeros-Regular">300</tspan></text>
<g
         transform="translate(0,252)"
         id="g70"><path
           d="m 34.301,-229.602 0,3.153 m 0,218 0,-3.153"
           id="path72"
           style="fill:none;stroke:#000000;stroke-width:0.5;stroke-linecap:butt;stroke-linejoin:miter;stroke-miterlimit:3.79999995;stroke-opacity:1;stroke-dasharray:none" /></g><text
         transform="matrix(1,0,0,-1,33.3273,13.1)"
         id="text74"><tspan
           x="0"
           y="0"
           id="tspan76"
           style="font-size:7px;font-variant:normal;font-weight:normal;writing-mode:lr-tb;fill:#000000;fill-opacity:1;fill-rule:nonzero;stroke:none;font-family:TeXGyreHeros;-inkscape-font-specification:TeXGyreHeros-Regular">0</tspan></text>
<g
         transform="translate(0,252)"
         id="g78"><path
           d="m 65.602,-229.602 0,3.153 m 0,218 0,-3.153"
           id="path80"
           style="fill:none;stroke:#000000;stroke-width:0.5;stroke-linecap:butt;stroke-linejoin:miter;stroke-miterlimit:3.79999995;stroke-opacity:1;stroke-dasharray:none" /></g><text
         transform="matrix(1,0,0,-1,56.7456,13.1)"
         id="text82"><tspan
           x="0 3.892 7.7839999 11.872 15.764"
           y="0"
           id="tspan84"
           style="font-size:7px;font-variant:normal;font-weight:normal;writing-mode:lr-tb;fill:#000000;fill-opacity:1;fill-rule:nonzero;stroke:none;font-family:TeXGyreHeros;-inkscape-font-specification:TeXGyreHeros-Regular">5e+06</tspan></text>
<g
         transform="translate(0,252)"
         id="g86"><path
           d="m 96.898,-229.602 0,3.153 m 0,218 0,-3.153"
           id="path88"
           style="fill:none;stroke:#000000;stroke-width:0.5;stroke-linecap:butt;stroke-linejoin:miter;stroke-miterlimit:3.79999995;stroke-opacity:1;stroke-dasharray:none" /></g><text
         transform="matrix(1,0,0,-1,88.0456,13.1)"
         id="text90"><tspan
           x="0 3.892 7.7839999 11.872 15.764"
           y="0"
           id="tspan92"
           style="font-size:7px;font-variant:normal;font-weight:normal;writing-mode:lr-tb;fill:#000000;fill-opacity:1;fill-rule:nonzero;stroke:none;font-family:TeXGyreHeros;-inkscape-font-specification:TeXGyreHeros-Regular">1e+07</tspan></text>
<g
         transform="translate(0,252)"
         id="g94"><path
           d="m 128.199,-229.602 0,3.153 m 0,218 0,-3.153"
           id="path96"
           style="fill:none;stroke:#000000;stroke-width:0.5;stroke-linecap:butt;stroke-linejoin:miter;stroke-miterlimit:3.79999995;stroke-opacity:1;stroke-dasharray:none" /></g><text
         transform="matrix(1,0,0,-1,116.427,13.1)"
         id="text98"><tspan
           x="0 3.892 5.8379998 9.7299995 13.622 17.709999 21.601999"
           y="0"
           id="tspan100"
           style="font-size:7px;font-variant:normal;font-weight:normal;writing-mode:lr-tb;fill:#000000;fill-opacity:1;fill-rule:nonzero;stroke:none;font-family:TeXGyreHeros;-inkscape-font-specification:TeXGyreHeros-Regular">1.5e+07</tspan></text>
<g
         transform="translate(0,252)"
         id="g102"><path
           d="m 159.5,-229.602 0,3.153 m 0,218 0,-3.153"
           id="path104"
           style="fill:none;stroke:#000000;stroke-width:0.5;stroke-linecap:butt;stroke-linejoin:miter;stroke-miterlimit:3.79999995;stroke-opacity:1;stroke-dasharray:none" /></g><text
         transform="matrix(1,0,0,-1,150.646,13.1)"
         id="text106"><tspan
           x="0 3.892 7.7839999 11.872 15.764"
           y="0"
           id="tspan108"
           style="font-size:7px;font-variant:normal;font-weight:normal;writing-mode:lr-tb;fill:#000000;fill-opacity:1;fill-rule:nonzero;stroke:none;font-family:TeXGyreHeros;-inkscape-font-specification:TeXGyreHeros-Regular">2e+07</tspan></text>
<g
         transform="translate(0,252)"
         id="g110"><path
           d="m 190.852,-229.602 0,3.153 m 0,218 0,-3.153"
           id="path112"
           style="fill:none;stroke:#000000;stroke-width:0.5;stroke-linecap:butt;stroke-linejoin:miter;stroke-miterlimit:3.79999995;stroke-opacity:1;stroke-dasharray:none" /></g><text
         transform="matrix(1,0,0,-1,179.077,13.1)"
         id="text114"><tspan
           x="0 3.892 5.8379998 9.7299995 13.622 17.709999 21.601999"
           y="0"
           id="tspan116"
           style="font-size:7px;font-variant:normal;font-weight:normal;writing-mode:lr-tb;fill:#000000;fill-opacity:1;fill-rule:nonzero;stroke:none;font-family:TeXGyreHeros;-inkscape-font-specification:TeXGyreHeros-Regular">2.5e+07</tspan></text>
<g
         transform="translate(0,252)"
         id="g118"><path
           d="m 222.148,-229.602 0,3.153 m 0,218 0,-3.153"
           id="path120"
           style="fill:none;stroke:#000000;stroke-width:0.5;stroke-linecap:butt;stroke-linejoin:miter;stroke-miterlimit:3.79999995;stroke-opacity:1;stroke-dasharray:none" /></g><text
         transform="matrix(1,0,0,-1,213.296,13.1)"
         id="text122"><tspan
           x="0 3.892 7.7839999 11.872 15.764"
           y="0"
           id="tspan124"
           style="font-size:7px;font-variant:normal;font-weight:normal;writing-mode:lr-tb;fill:#000000;fill-opacity:1;fill-rule:nonzero;stroke:none;font-family:TeXGyreHeros;-inkscape-font-specification:TeXGyreHeros-Regular">3e+07</tspan></text>
<g
         transform="translate(0,252)"
         id="g126"><path
           d="m 253.449,-229.602 0,3.153 m 0,218 0,-3.153"
           id="path128"
           style="fill:none;stroke:#000000;stroke-width:0.5;stroke-linecap:butt;stroke-linejoin:miter;stroke-miterlimit:3.79999995;stroke-opacity:1;stroke-dasharray:none" /></g><text
         transform="matrix(1,0,0,-1,241.677,13.1)"
         id="text130"><tspan
           x="0 3.892 5.8379998 9.7299995 13.622 17.709999 21.601999"
           y="0"
           id="tspan132"
           style="font-size:7px;font-variant:normal;font-weight:normal;writing-mode:lr-tb;fill:#000000;fill-opacity:1;fill-rule:nonzero;stroke:none;font-family:TeXGyreHeros;-inkscape-font-specification:TeXGyreHeros-Regular">3.5e+07</tspan></text>
<g
         transform="translate(0,252)"
         id="g134"><path
           d="m 284.75,-229.602 0,3.153 m 0,218 0,-3.153"
           id="path136"
           style="fill:none;stroke:#000000;stroke-width:0.5;stroke-linecap:butt;stroke-linejoin:miter;stroke-miterlimit:3.79999995;stroke-opacity:1;stroke-dasharray:none" /></g><text
         transform="matrix(1,0,0,-1,275.896,13.1)"
         id="text138"><tspan
           x="0 3.892 7.7839999 11.872 15.764"
           y="0"
           id="tspan140"
           style="font-size:7px;font-variant:normal;font-weight:normal;writing-mode:lr-tb;fill:#000000;fill-opacity:1;fill-rule:nonzero;stroke:none;font-family:TeXGyreHeros;-inkscape-font-specification:TeXGyreHeros-Regular">4e+07</tspan></text>
<g
         transform="translate(0,252)"
         id="g142"><path
           d="m 316.051,-229.602 0,3.153 m 0,218 0,-3.153"
           id="path144"
           style="fill:none;stroke:#000000;stroke-width:0.5;stroke-linecap:butt;stroke-linejoin:miter;stroke-miterlimit:3.79999995;stroke-opacity:1;stroke-dasharray:none" /></g><text
         transform="matrix(1,0,0,-1,304.277,13.1)"
         id="text146"><tspan
           x="0 3.892 5.8379998 9.7299995 13.622 17.709999 21.601999"
           y="0"
           id="tspan148"
           style="font-size:7px;font-variant:normal;font-weight:normal;writing-mode:lr-tb;fill:#000000;fill-opacity:1;fill-rule:nonzero;stroke:none;font-family:TeXGyreHeros;-inkscape-font-specification:TeXGyreHeros-Regular">4.5e+07</tspan></text>
<g
         transform="translate(0,252)"
         id="g150"><path
           d="m 347.352,-229.602 0,3.153 m 0,218 0,-3.153"
           id="path152"
           style="fill:none;stroke:#000000;stroke-width:0.5;stroke-linecap:butt;stroke-linejoin:miter;stroke-miterlimit:3.79999995;stroke-opacity:1;stroke-dasharray:none" /></g><text
         transform="matrix(1,0,0,-1,338.496,13.1)"
         id="text154"><tspan
           x="0 3.892 7.7839999 11.872 15.764"
           y="0"
           id="tspan156"
           style="font-size:7px;font-variant:normal;font-weight:normal;writing-mode:lr-tb;fill:#000000;fill-opacity:1;fill-rule:nonzero;stroke:none;font-family:TeXGyreHeros;-inkscape-font-specification:TeXGyreHeros-Regular">5e+07</tspan></text>
<g
         transform="translate(0,252)"
         id="g158"><path
           d="m 34.301,-8.449 313.051,0 0,-221.152 -313.051,0 0,221.152 z"
           id="path160"
           style="fill:none;stroke:#000000;stroke-width:0.5;stroke-linecap:butt;stroke-linejoin:miter;stroke-miterlimit:3.79999995;stroke-opacity:1;stroke-dasharray:none" /></g><text
         transform="matrix(0,1,1,0,7.9,117.204)"
         id="text162"><tspan
           x="0 4.277 5.8309999 11.662 15.554 17.5 19.830999 25.662001 29.162001"
           y="0"
           id="tspan164"
           style="font-size:7px;font-variant:normal;font-weight:normal;writing-mode:lr-tb;fill:#000000;fill-opacity:1;fill-rule:nonzero;stroke:none;font-family:TeXGyreHeros;-inkscape-font-specification:TeXGyreHeros-Regular">Time (ms)</tspan></text>
<text
         transform="matrix(1,0,0,-1,159.089,2.6)"
         id="text166"><tspan
           x="0 3.892 5.8379998 9.7299995 11.676 13.622 15.176 19.068001 21.014 24.906 28.798 32.689999 35.021 38.521 40.466999 44.359001 48.250999 51.750999 55.643002 59.535"
           y="0"
           id="tspan168"
           style="font-size:7px;font-variant:normal;font-weight:normal;writing-mode:lr-tb;fill:#000000;fill-opacity:1;fill-rule:nonzero;stroke:none;font-family:TeXGyreHeros;-inkscape-font-specification:TeXGyreHeros-Regular"># of integers pushed</tspan><tspan
           x="110.976 113.307 117.199 121.091 122.645 124.199 128.091 131.591 135.483 138.983 144.037 147.929 151.821"
           y="-232"
           id="tspan170"
           style="font-size:7px;font-variant:normal;font-weight:normal;writing-mode:lr-tb;fill:#000000;fill-opacity:1;fill-rule:nonzero;stroke:none;font-family:TeXGyreHeros;-inkscape-font-specification:TeXGyreHeros-Regular">realloc_sw_15</tspan></text>
<g
         transform="translate(0,252)"
         id="g172"><path
           d="m 319,-15.102 19.949,0 m -298.398,-211.546 31.301,16.449 31.296,16.097 31.352,16.852 31.301,17.051 31.301,16.097 31.296,14.5 31.301,15.852 31.301,18.449 31.301,17.699"
           id="path174"
           style="fill:none;stroke:#0061ad;stroke-width:0.5;stroke-linecap:butt;stroke-linejoin:miter;stroke-miterlimit:3.79999995;stroke-opacity:1;stroke-dasharray:none" /></g><path
         d="m 42.125,25.352 c 0,0.867 -0.707,1.574 -1.574,1.574 -0.871,0 -1.574,-0.707 -1.574,-1.574 0,-0.872 0.703,-1.579 1.574,-1.579 0.867,0 1.574,0.707 1.574,1.579"
         id="path176"
         style="fill:#0061ad;fill-opacity:1;fill-rule:nonzero;stroke:none" /><path
         d="m 73.426,41.801 c 0,0.867 -0.707,1.574 -1.574,1.574 -0.872,0 -1.579,-0.707 -1.579,-1.574 0,-0.871 0.707,-1.574 1.579,-1.574 0.867,0 1.574,0.703 1.574,1.574"
         id="path178"
         style="fill:#0061ad;fill-opacity:1;fill-rule:nonzero;stroke:none" /><path
         d="m 104.727,57.898 c 0,0.872 -0.707,1.579 -1.579,1.579 -0.867,0 -1.574,-0.707 -1.574,-1.579 0,-0.867 0.707,-1.574 1.574,-1.574 0.872,0 1.579,0.707 1.579,1.574"
         id="path180"
         style="fill:#0061ad;fill-opacity:1;fill-rule:nonzero;stroke:none" /><path
         d="m 136.074,74.75 c 0,0.871 -0.703,1.574 -1.574,1.574 -0.871,0 -1.574,-0.703 -1.574,-1.574 0,-0.871 0.703,-1.574 1.574,-1.574 0.871,0 1.574,0.703 1.574,1.574"
         id="path182"
         style="fill:#0061ad;fill-opacity:1;fill-rule:nonzero;stroke:none" /><path
         d="m 167.375,91.801 c 0,0.867 -0.703,1.574 -1.574,1.574 -0.871,0 -1.574,-0.707 -1.574,-1.574 0,-0.871 0.703,-1.574 1.574,-1.574 0.871,0 1.574,0.703 1.574,1.574"
         id="path184"
         style="fill:#0061ad;fill-opacity:1;fill-rule:nonzero;stroke:none" /><path
         d="m 198.676,107.898 c 0,0.872 -0.707,1.579 -1.574,1.579 -0.872,0 -1.579,-0.707 -1.579,-1.579 0,-0.867 0.707,-1.574 1.579,-1.574 0.867,0 1.574,0.707 1.574,1.574"
         id="path186"
         style="fill:#0061ad;fill-opacity:1;fill-rule:nonzero;stroke:none" /><path
         d="m 229.977,122.398 c 0,0.872 -0.707,1.579 -1.579,1.579 -0.867,0 -1.574,-0.707 -1.574,-1.579 0,-0.867 0.707,-1.574 1.574,-1.574 0.872,0 1.579,0.707 1.579,1.574"
         id="path188"
         style="fill:#0061ad;fill-opacity:1;fill-rule:nonzero;stroke:none" /><path
         d="m 261.273,138.25 c 0,0.871 -0.703,1.574 -1.574,1.574 -0.871,0 -1.574,-0.703 -1.574,-1.574 0,-0.871 0.703,-1.574 1.574,-1.574 0.871,0 1.574,0.703 1.574,1.574"
         id="path190"
         style="fill:#0061ad;fill-opacity:1;fill-rule:nonzero;stroke:none" /><path
         d="m 292.574,156.699 c 0,0.871 -0.703,1.574 -1.574,1.574 -0.871,0 -1.574,-0.703 -1.574,-1.574 0,-0.871 0.703,-1.574 1.574,-1.574 0.871,0 1.574,0.703 1.574,1.574"
         id="path192"
         style="fill:#0061ad;fill-opacity:1;fill-rule:nonzero;stroke:none" /><path
         d="m 323.875,174.398 c 0,0.872 -0.703,1.579 -1.574,1.579 -0.871,0 -1.574,-0.707 -1.574,-1.579 0,-0.867 0.703,-1.574 1.574,-1.574 0.871,0 1.574,0.707 1.574,1.574"
         id="path194"
         style="fill:#0061ad;fill-opacity:1;fill-rule:nonzero;stroke:none" /><path
         d="m 330.523,236.898 c 0,0.872 -0.703,1.579 -1.574,1.579 -0.871,0 -1.574,-0.707 -1.574,-1.579 0,-0.867 0.703,-1.574 1.574,-1.574 0.871,0 1.574,0.707 1.574,1.574"
         id="path196"
         style="fill:#0061ad;fill-opacity:1;fill-rule:nonzero;stroke:none" /><text
         transform="matrix(1,0,0,-1,273.957,227.6)"
         id="text198"><tspan
           x="0 2.3310001 6.223 10.115 11.669 13.223 17.115 20.615 24.507 28.007 33.061001 36.952999"
           y="0"
           id="tspan200"
           style="font-size:7px;font-variant:normal;font-weight:normal;writing-mode:lr-tb;fill:#000000;fill-opacity:1;fill-rule:nonzero;stroke:none;font-family:TeXGyreHeros;-inkscape-font-specification:TeXGyreHeros-Regular">realloc_sw_2</tspan></text>
<g
         transform="translate(0,252)"
         id="g202"><path
           d="m 319,-22.102 19.949,0 m -298.398,-204.449 31.301,16.102 31.296,17.449 31.352,16.602 31.301,15.347 31.301,16.199 31.296,15.153 31.301,16.199 31.301,18.199 31.301,18.051"
           id="path204"
           style="fill:none;stroke:#de171f;stroke-width:0.5;stroke-linecap:butt;stroke-linejoin:miter;stroke-miterlimit:3.79999995;stroke-opacity:1;stroke-dasharray:none" /></g><path
         d="m 42.125,25.449 c 0,0.871 -0.707,1.574 -1.574,1.574 -0.871,0 -1.574,-0.703 -1.574,-1.574 0,-0.867 0.703,-1.574 1.574,-1.574 0.867,0 1.574,0.707 1.574,1.574"
         id="path206"
         style="fill:#de171f;fill-opacity:1;fill-rule:nonzero;stroke:none" /><path
         d="m 73.426,41.551 c 0,0.867 -0.707,1.574 -1.574,1.574 -0.872,0 -1.579,-0.707 -1.579,-1.574 0,-0.871 0.707,-1.574 1.579,-1.574 0.867,0 1.574,0.703 1.574,1.574"
         id="path208"
         style="fill:#de171f;fill-opacity:1;fill-rule:nonzero;stroke:none" /><path
         d="m 104.727,59 c 0,0.871 -0.707,1.574 -1.579,1.574 -0.867,0 -1.574,-0.703 -1.574,-1.574 0,-0.871 0.707,-1.574 1.574,-1.574 0.872,0 1.579,0.703 1.579,1.574"
         id="path210"
         style="fill:#de171f;fill-opacity:1;fill-rule:nonzero;stroke:none" /><path
         d="m 136.074,75.602 c 0,0.867 -0.703,1.574 -1.574,1.574 -0.871,0 -1.574,-0.707 -1.574,-1.574 0,-0.872 0.703,-1.579 1.574,-1.579 0.871,0 1.574,0.707 1.574,1.579"
         id="path212"
         style="fill:#de171f;fill-opacity:1;fill-rule:nonzero;stroke:none" /><path
         d="m 167.375,90.949 c 0,0.871 -0.703,1.574 -1.574,1.574 -0.871,0 -1.574,-0.703 -1.574,-1.574 0,-0.867 0.703,-1.574 1.574,-1.574 0.871,0 1.574,0.707 1.574,1.574"
         id="path214"
         style="fill:#de171f;fill-opacity:1;fill-rule:nonzero;stroke:none" /><path
         d="m 198.676,107.148 c 0,0.872 -0.707,1.579 -1.574,1.579 -0.872,0 -1.579,-0.707 -1.579,-1.579 0,-0.867 0.707,-1.574 1.579,-1.574 0.867,0 1.574,0.707 1.574,1.574"
         id="path216"
         style="fill:#de171f;fill-opacity:1;fill-rule:nonzero;stroke:none" /><path
         d="m 229.977,122.301 c 0,0.871 -0.707,1.574 -1.579,1.574 -0.867,0 -1.574,-0.703 -1.574,-1.574 0,-0.871 0.707,-1.574 1.574,-1.574 0.872,0 1.579,0.703 1.579,1.574"
         id="path218"
         style="fill:#de171f;fill-opacity:1;fill-rule:nonzero;stroke:none" /><path
         d="m 261.273,138.5 c 0,0.871 -0.703,1.574 -1.574,1.574 -0.871,0 -1.574,-0.703 -1.574,-1.574 0,-0.871 0.703,-1.574 1.574,-1.574 0.871,0 1.574,0.703 1.574,1.574"
         id="path220"
         style="fill:#de171f;fill-opacity:1;fill-rule:nonzero;stroke:none" /><path
         d="m 292.574,156.699 c 0,0.871 -0.703,1.574 -1.574,1.574 -0.871,0 -1.574,-0.703 -1.574,-1.574 0,-0.871 0.703,-1.574 1.574,-1.574 0.871,0 1.574,0.703 1.574,1.574"
         id="path222"
         style="fill:#de171f;fill-opacity:1;fill-rule:nonzero;stroke:none" /><path
         d="m 323.875,174.75 c 0,0.871 -0.703,1.574 -1.574,1.574 -0.871,0 -1.574,-0.703 -1.574,-1.574 0,-0.871 0.703,-1.574 1.574,-1.574 0.871,0 1.574,0.703 1.574,1.574"
         id="path224"
         style="fill:#de171f;fill-opacity:1;fill-rule:nonzero;stroke:none" /><path
         d="m 330.523,229.898 c 0,0.872 -0.703,1.579 -1.574,1.579 -0.871,0 -1.574,-0.707 -1.574,-1.579 0,-0.867 0.703,-1.574 1.574,-1.574 0.871,0 1.574,0.707 1.574,1.574"
         id="path226"
         style="fill:#de171f;fill-opacity:1;fill-rule:nonzero;stroke:none" /><text
         transform="matrix(1,0,0,-1,282.511,220.6)"
         id="text228"><tspan
           x="0 3.5 5.4460001 9.3380003 11.284 13.23 16.73 20.622 24.122 26.068001 29.959999"
           y="0"
           id="tspan230"
           style="font-size:7px;font-variant:normal;font-weight:normal;writing-mode:lr-tb;fill:#000000;fill-opacity:1;fill-rule:nonzero;stroke:none;font-family:TeXGyreHeros;-inkscape-font-specification:TeXGyreHeros-Regular">std::vector</tspan></text>
<g
         transform="translate(0,252)"
         id="g232"><path
           d="m 319,-29.102 19.949,0 m -298.398,-197.449 31.301,19.801 31.296,24.199 31.352,9.852 31.301,32.148 31.301,10.699 31.296,8.5 31.301,52.102 L 291,-56 l 31.301,13.051"
           id="path234"
           style="fill:none;stroke:#a1ff00;stroke-width:0.5;stroke-linecap:butt;stroke-linejoin:miter;stroke-miterlimit:3.79999995;stroke-opacity:1;stroke-dasharray:2, 1;stroke-dashoffset:0" /></g><path
         d="m 42.125,25.449 c 0,0.871 -0.707,1.574 -1.574,1.574 -0.871,0 -1.574,-0.703 -1.574,-1.574 0,-0.867 0.703,-1.574 1.574,-1.574 0.867,0 1.574,0.707 1.574,1.574"
         id="path236"
         style="fill:#a1ff00;fill-opacity:1;fill-rule:nonzero;stroke:none" /><path
         d="m 73.426,45.25 c 0,0.871 -0.707,1.574 -1.574,1.574 -0.872,0 -1.579,-0.703 -1.579,-1.574 0,-0.871 0.707,-1.574 1.579,-1.574 0.867,0 1.574,0.703 1.574,1.574"
         id="path238"
         style="fill:#a1ff00;fill-opacity:1;fill-rule:nonzero;stroke:none" /><path
         d="m 104.727,69.449 c 0,0.871 -0.707,1.574 -1.579,1.574 -0.867,0 -1.574,-0.703 -1.574,-1.574 0,-0.867 0.707,-1.574 1.574,-1.574 0.872,0 1.579,0.707 1.579,1.574"
         id="path240"
         style="fill:#a1ff00;fill-opacity:1;fill-rule:nonzero;stroke:none" /><path
         d="m 136.074,79.301 c 0,0.867 -0.703,1.574 -1.574,1.574 -0.871,0 -1.574,-0.707 -1.574,-1.574 0,-0.871 0.703,-1.574 1.574,-1.574 0.871,0 1.574,0.703 1.574,1.574"
         id="path242"
         style="fill:#a1ff00;fill-opacity:1;fill-rule:nonzero;stroke:none" /><path
         d="m 167.375,111.449 c 0,0.871 -0.703,1.574 -1.574,1.574 -0.871,0 -1.574,-0.703 -1.574,-1.574 0,-0.871 0.703,-1.574 1.574,-1.574 0.871,0 1.574,0.703 1.574,1.574"
         id="path244"
         style="fill:#a1ff00;fill-opacity:1;fill-rule:nonzero;stroke:none" /><path
         d="m 198.676,122.148 c 0,0.872 -0.707,1.579 -1.574,1.579 -0.872,0 -1.579,-0.707 -1.579,-1.579 0,-0.867 0.707,-1.574 1.579,-1.574 0.867,0 1.574,0.707 1.574,1.574"
         id="path246"
         style="fill:#a1ff00;fill-opacity:1;fill-rule:nonzero;stroke:none" /><path
         d="m 229.977,130.648 c 0,0.872 -0.707,1.579 -1.579,1.579 -0.867,0 -1.574,-0.707 -1.574,-1.579 0,-0.867 0.707,-1.574 1.574,-1.574 0.872,0 1.579,0.707 1.579,1.574"
         id="path248"
         style="fill:#a1ff00;fill-opacity:1;fill-rule:nonzero;stroke:none" /><path
         d="m 261.273,182.75 c 0,0.871 -0.703,1.574 -1.574,1.574 -0.871,0 -1.574,-0.703 -1.574,-1.574 0,-0.871 0.703,-1.574 1.574,-1.574 0.871,0 1.574,0.703 1.574,1.574"
         id="path250"
         style="fill:#a1ff00;fill-opacity:1;fill-rule:nonzero;stroke:none" /><path
         d="m 292.574,196 c 0,0.871 -0.703,1.574 -1.574,1.574 -0.871,0 -1.574,-0.703 -1.574,-1.574 0,-0.871 0.703,-1.574 1.574,-1.574 0.871,0 1.574,0.703 1.574,1.574"
         id="path252"
         style="fill:#a1ff00;fill-opacity:1;fill-rule:nonzero;stroke:none" /><path
         d="m 323.875,209.051 c 0,0.871 -0.703,1.574 -1.574,1.574 -0.871,0 -1.574,-0.703 -1.574,-1.574 0,-0.871 0.703,-1.574 1.574,-1.574 0.871,0 1.574,0.703 1.574,1.574"
         id="path254"
         style="fill:#a1ff00;fill-opacity:1;fill-rule:nonzero;stroke:none" /><path
         d="m 330.523,222.898 c 0,0.872 -0.703,1.579 -1.574,1.579 -0.871,0 -1.574,-0.707 -1.574,-1.579 0,-0.867 0.703,-1.574 1.574,-1.574 0.871,0 1.574,0.707 1.574,1.574"
         id="path256"
         style="fill:#a1ff00;fill-opacity:1;fill-rule:nonzero;stroke:none" /><g
         transform="translate(0,252)"
         id="g258"><path
           d="m 34.301,-8.449 313.051,0 0,-221.152 -313.051,0 0,221.152 z"
           id="path260"
           style="fill:none;stroke:#000000;stroke-width:0.5;stroke-linecap:butt;stroke-linejoin:miter;stroke-miterlimit:3.79999995;stroke-opacity:1;stroke-dasharray:none" /></g></g></g></svg>